Coordinates
version=1
nRows=13
nColumns=40
inDegrees=yes

Units are S.I. units (second, meters, Newtons, ...)
Angles are in degrees.

endheader
time	pelvis_tilt	pelvis_list	pelvis_rotation	pelvis_tx	pelvis_ty	pelvis_tz	hip_flexion_r	hip_adduction_r	hip_rotation_r	knee_angle_r	knee_angle_r_beta	ankle_angle_r	subtalar_angle_r	mtp_angle_r	hip_flexion_l	hip_adduction_l	hip_rotation_l	knee_angle_l	knee_angle_l_beta	ankle_angle_l	subtalar_angle_l	mtp_angle_l	lumbar_extension	lumbar_bending	lumbar_rotation	arm_flex_r	arm_add_r	arm_rot_r	elbow_flex_r	pro_sup_r	wrist_flex_r	wrist_dev_r	arm_flex_l	arm_add_l	arm_rot_l	elbow_flex_l	pro_sup_l	wrist_flex_l	wrist_dev_l
     18.05000000	     -4.14936294	     -5.52453783	     -0.32613587	      1.04763900	      0.93138682	      0.43486421	     24.63178930	     -4.82855484	     -6.82760109	     62.13882566	     62.13882566	      6.19149441	     -8.23115709	     -2.45998578	     15.14603077	     -5.94325426	     -6.21356235	     24.64118160	     24.64118160	     16.31185574	     -7.74085316	      2.12541480	    -10.49309413	      4.68988569	      1.48194774	      3.37843998	    -15.95054546	     -5.12512052	     35.63515722	     45.99925390	      0.00000000	      0.00000000	     13.46300548	    -14.57226002	     -6.73798900	     39.38072491	     45.99491487	      0.00000000	      0.00000000
     18.06285714	     -4.19042666	     -5.47226829	     -0.38776309	      1.04716175	      0.93211012	      0.43461945	     25.70693493	     -4.76187522	     -6.74825109	     62.16212531	     62.16212531	      6.12853643	     -8.89590999	     -2.35160662	     14.44110633	     -5.82722465	     -6.32401756	     23.92705365	     23.92705365	     16.36635454	     -7.58810441	      2.20271186	    -10.51288340	      4.53252938	      1.34739453	      1.75805240	    -15.48286665	     -4.98746121	     35.00023850	     46.00197045	      0.00000000	      0.00000000	     14.35942879	    -14.78354793	     -6.84211244	     39.94271106	     46.02811937	      0.00000000	      0.00000000
     18.07571429	     -4.22366603	     -5.42289971	     -0.46376975	      1.04667201	      0.93284259	      0.43441254	     26.72695565	     -4.65879924	     -6.63017811	     62.05638104	     62.05638104	      6.01913243	     -9.60594203	     -2.17197597	     13.70618262	     -5.71821450	     -6.45020884	     23.16807193	     23.16807193	     16.37511559	     -7.37262050	      2.23688466	    -10.56895829	      4.37249651	      1.29948511	      0.04220958	    -15.04657343	     -4.88558179	     34.49139460	     46.00103629	      0.00000000	      0.00000000	     15.24595756	    -14.97868140	     -6.92792688	     40.66384449	     46.05919197	      0.00000000	      0.00000000
     18.08857143	     -4.22129449	     -5.40586125	     -0.55420103	      1.04620902	      0.93348522	      0.43430392	     27.63792713	     -4.51866991	     -6.55027070	     61.80393698	     61.80393698	      5.94200445	    -10.29214566	     -1.93355801	     12.94615560	     -5.65010529	     -6.59610945	     22.43478094	     22.43478094	     16.42276461	     -7.21987268	      2.16983468	    -10.65377302	      4.24746590	      1.38032062	     -1.68381395	    -14.68247927	     -4.84285648	     34.13035952	     45.99741450	      0.00000000	      0.00000000	     16.13874094	    -15.07971814	     -6.95812367	     41.52917875	     46.08600373	      0.00000000	      0.00000000
     18.10142857	     -4.31488237	     -5.42560450	     -0.53631173	      1.04561064	      0.93393430	      0.43418671	     28.53239623	     -4.41141852	     -6.65644180	     61.30995471	     61.30995471	      5.95009820	    -10.84767095	     -1.72274182	     12.39979714	     -5.62714674	     -6.64528492	     21.82602450	     21.82602450	     16.39575287	     -6.99980395	      2.16396979	    -10.67336059	      4.19002320	      1.09369643	     -3.17788508	    -14.20068013	     -4.79214791	     33.79201894	     45.99475672	      0.00000000	      0.00000000	     16.87708078	    -15.27850755	     -6.98157460	     42.13753402	     46.10534531	      0.00000000	      0.00000000
     18.11428571	     -4.32168016	     -5.39390172	     -0.62612360	      1.04508532	      0.93438570	      0.43409036	     29.25791030	     -4.29696676	     -6.63109452	     60.55645926	     60.55645926	      5.85495251	    -11.53855978	     -1.35031266	     11.69266287	     -5.53885596	     -6.78891351	     21.14432557	     21.14432557	     16.49896682	     -6.85661795	      2.01898687	    -10.76791632	      4.14601537	      1.33694963	     -4.71439909	    -13.88449035	     -4.80032155	     33.53014515	     45.99219988	      0.00000000	      0.00000000	     17.70624661	    -15.29012182	     -6.94034465	     43.06978267	     46.12293123	      0.00000000	      0.00000000
     18.12714286	     -4.44074632	     -5.41872298	     -0.58101303	      1.04432720	      0.93453818	      0.43399712	     29.98734945	     -4.20294281	     -6.78236095	     59.54024593	     59.54024593	      5.91700298	    -11.93967946	     -1.10201645	     11.27263106	     -5.52601039	     -6.78613084	     20.67930663	     20.67930663	     16.51037087	     -6.65631341	      1.95854888	    -10.75460500	      4.17494673	      1.03929610	     -6.00803065	    -13.46055879	     -4.77690209	     33.24825247	     45.99081451	      0.00000000	      0.00000000	     18.43711271	    -15.46057701	     -6.92910224	     43.67137746	     46.13757536	      0.00000000	      0.00000000
     18.14000000	     -4.56100750	     -5.42709892	     -0.57394296	      1.04355781	      0.93458635	      0.43404518	     30.61351184	     -4.09357628	     -6.91573764	     58.21800237	     58.21800237	      5.94919006	    -12.36155673	     -0.79835479	     10.83571054	     -5.50389463	     -6.80696391	     20.19085903	     20.19085903	     16.60026742	     -6.46305177	      1.87730571	    -10.74296434	      4.17399746	      0.91840467	     -7.18835211	    -13.11141398	     -4.74972879	     32.96489727	     45.99036072	      0.00000000	      0.00000000	     19.16887206	    -15.53162739	     -6.90435513	     44.33537030	     46.15089187	      0.00000000	      0.00000000
     18.15285714	     -4.65309816	     -5.46363327	     -0.56678031	      1.04275406	      0.93471351	      0.43419683	     31.02819676	     -3.88308364	     -7.02149421	     56.47898734	     56.47898734	      6.08333790	    -12.95386447	     -0.41681720	     10.30000736	     -5.52162436	     -6.91098123	     19.55390127	     19.55390127	     16.57531241	     -6.19135671	      1.74565360	    -10.86233786	      4.23065039	      1.28488215	     -8.46463362	    -12.83974641	     -4.75440579	     32.72172875	     45.98938310	      0.00000000	      0.00000000	     19.94793076	    -15.25615444	     -6.74912865	     45.38248381	     46.15624133	      0.00000000	      0.00000000
     18.16571429	     -4.70732675	     -5.42227379	     -0.57681367	      1.04191095	      0.93455618	      0.43438105	     31.33855725	     -3.75114036	     -7.04317209	     54.53140963	     54.53140963	      6.19985182	    -13.23142232	     -0.17811163	      9.85838649	     -5.49932492	     -7.12381381	     19.16981269	     19.16981269	     16.30355943	     -5.94110823	      0.48397110	    -11.02477987	      4.17620102	      1.75915287	    -10.06326815	    -12.59956274	     -5.46485699	     33.79189665	     45.97335598	      0.00000000	      0.00000000	     20.47741818	    -15.27050185	     -5.41883654	     47.30882450	     46.07870815	      0.00000000	      0.00000000
     18.17857143	     -4.87447282	     -5.37021621	     -0.53948874	      1.04103383	      0.93427627	      0.43458776	     31.60725043	     -3.66996710	     -7.21459217	     52.25812761	     52.25812761	      6.41060597	    -13.33687170	      0.01967004	      9.53163695	     -5.43104149	     -7.16176760	     18.75880926	     18.75880926	     16.38308115	     -5.77178903	      0.37814926	    -10.99220610	      4.16811843	      1.79525178	    -10.81839765	    -12.37368346	     -5.44524811	     33.49256640	     45.97721256	      0.00000000	      0.00000000	     21.17504947	    -15.07230000	     -5.18144929	     47.88471188	     46.07869774	      0.00000000	      0.00000000
     18.19142857	     -5.09897459	     -5.32387161	     -0.44756534	      1.04010951	      0.93384042	      0.43478092	     31.78272592	     -3.59500797	     -7.45047734	     49.67028147	     49.67028147	      6.66853186	    -13.18929139	      0.25054999	      9.33815161	     -5.37796771	     -7.15403158	     18.46083807	     18.46083807	     16.46507631	     -5.55549590	      0.30463680	    -10.89632961	      4.20031604	      1.72518587	    -11.36180866	    -12.16948472	     -5.38676874	     33.28793036	     45.97697024	      0.00000000	      0.00000000	     21.77330692	    -14.93873006	     -5.07066391	     48.38842119	     46.08276935	      0.00000000	      0.00000000
     18.20428571	     -5.23499527	     -5.23115234	     -0.38695845	      1.03923716	      0.93346429	      0.43505787	     31.71788203	     -3.50247889	     -7.60526712	     46.79492017	     46.79492017	      6.88165082	    -12.84778888	      0.42103441	      9.03993819	     -5.29599599	     -7.22910694	     18.17638846	     18.17638846	     16.61272558	     -5.24731940	      0.14874168	    -10.95608234	      4.11900911	      1.84712707	    -11.87800672	    -12.09655704	     -5.31259850	     33.06818960	     45.97666392	      0.00000000	      0.00000000	     22.35676547	    -14.61112430	     -4.84027229	     49.08266419	     46.07887035	      0.00000000	      0.00000000
